# xmcd
#
# Track frame offsets:
#	150
#	27288
#	70832
#	102498
#	135945
#	159724
#	207713
#	228389
#	262585
#	290118
#
# Disc length: 4375 seconds
#
# Revision: 1
# Processed by: cddbd v1.5.2PL0 Copyright (c) Steve Scherf et al.
# Submitted via: audiograbber 1.83.01
#
DISCID=8f11150a
DTITLE=Grateful Dead - 87-04-11 UIC Pavilion, Chicago IL
DYEAR=1900
DGENRE=
TTITLE0=Hell In A Bucket
TTITLE1=Sugaree
TTITLE2=Minglewood Blues
TTITLE3=Loser
TTITLE4=Tons Of Steel
TTITLE5=Desolation Row
TTITLE6=Big Railroad Blues
TTITLE7=The Music Never Stopped
TTITLE8=Touch Of Grey
TTITLE9=Men Smart Women Smarter
EXTD=
EXTT0=
EXTT1=
EXTT2=
EXTT3=
EXTT4=
EXTT5=
EXTT6=
EXTT7=
EXTT8=
EXTT9=
PLAYORDER=
